# xmcd
#
# Track frame offsets:
# 150
# 15832
# 31175
# 45797
# 70170
# 80768
# 90006
# 122939
# 134663
# 154765
# 172328
# 185653
#
# Disc length: 2733 seconds
#
# Revision: 1
# Processed by: cddbd v1.5.2PL0 Copyright (c) Steve Scherf et al.
# Submitted via: CedeCatalogueitor 2.6.0.6 http://personales.ya.com/cdcatalogueitor
#
DISCID=930aab0c
DTITLE=Crosby, Stills, Nash And Young - Gratest Hits
DYEAR=1900
DGENRE=
TTITLE0=Love The One You're With
TTITLE1=Music Is Love
TTITLE2=Chicago
TTITLE3=Bluebird Revisited
TTITLE4=Simple Man
TTITLE5=Orleans
TTITLE6=Judi Blue Eyes (Suite)
TTITLE7=Marrakesh Express
TTITLE8=Carry On
TTITLE9=Woodstock
TTITLE10=Teach Your Children
TTITLE11=Long Time Gone
EXTD=
EXTT0=
EXTT1=
EXTT2=
EXTT3=
EXTT4=
EXTT5=
EXTT6=
EXTT7=
EXTT8=
EXTT9=
EXTT10=
EXTT11=
PLAYORDER=
